PathFileType	4	(X/Y/Z)	C:\Users\italobelli\Desktop\GitHub\PTbot_officialCBL\Personal_Results\FLX03_noisy2.trc
DataRate	CameraRate	NumFrames	NumMarkers	Units	OrigDataRate	OrigDataStartFrame	OrigNumFrames
106.125000	106.125000	17	9	m	106.125000	426	850
Frame#	Time		gu		centelbow		EpL		centpxt8		centijc7		ij		ts		aa		ai
			X1	Y1	Z1	X2	Y2	Z2	X3	Y3	Z3	X4	Y4	Z4	X5	Y5	Z5	X6	Y6	Z6	X7	Y7	Z7	X8	Y8	Z8	X9	Y9	Z9

426	4.0047	-0.10522	0.064924	0.10163	-0.013393	0.2755	0.1822	-0.038146	0.28804	0.16579	-0.046816	-0.15316	-0.008669	-0.046816	0.031938	-0.008669	0	0	0	-0.13896	-0.020407	0.054469	-0.14043	0.087072	0.10616	-0.11774	-0.063749	0.15722
427	4.0141	-0.10512	0.064912	0.10177	-0.012448	0.27498	0.18248	-0.037184	0.28764	0.16612	-0.046816	-0.15316	-0.008669	-0.046816	0.031938	-0.008669	0	0	0	-0.13911	-0.02028	0.054445	-0.14028	0.08711	0.10633	-0.11783	-0.063861	0.15709
428	4.0236	-0.10503	0.064894	0.10191	-0.011488	0.27444	0.18277	-0.036206	0.28721	0.16646	-0.046816	-0.15316	-0.008669	-0.046816	0.031938	-0.008669	0	0	0	-0.13926	-0.020151	0.054416	-0.14014	0.087142	0.1065	-0.11792	-0.063979	0.15695
429	4.033	-0.10493	0.06487	0.10205	-0.010513	0.27388	0.18307	-0.035212	0.28676	0.16682	-0.046816	-0.15316	-0.008669	-0.046816	0.031938	-0.008669	0	0	0	-0.13941	-0.020019	0.054381	-0.13999	0.087169	0.10668	-0.11802	-0.064102	0.1568
430	4.0424	-0.10483	0.064839	0.1022	-0.0095237	0.27329	0.18338	-0.034203	0.28629	0.16719	-0.046816	-0.15316	-0.008669	-0.046816	0.031938	-0.008669	0	0	0	-0.13957	-0.019885	0.054341	-0.13983	0.087191	0.10686	-0.11811	-0.064229	0.15664
431	4.0518	-0.10473	0.064803	0.10235	-0.0085196	0.27269	0.18371	-0.033177	0.2858	0.16757	-0.046816	-0.15316	-0.008669	-0.046816	0.031938	-0.008669	0	0	0	-0.13973	-0.019749	0.054295	-0.13968	0.087209	0.10704	-0.11819	-0.064362	0.15646
432	4.0612	-0.10463	0.064761	0.1025	-0.0075014	0.27205	0.18404	-0.032137	0.28528	0.16797	-0.046816	-0.15316	-0.008669	-0.046816	0.031938	-0.008669	0	0	0	-0.13989	-0.01961	0.054245	-0.13952	0.087222	0.10722	-0.11828	-0.064499	0.15628
433	4.0707	-0.10452	0.064714	0.10265	-0.0064694	0.2714	0.18439	-0.031081	0.28475	0.16838	-0.046816	-0.15316	-0.008669	-0.046816	0.031938	-0.008669	0	0	0	-0.14006	-0.019469	0.05419	-0.13936	0.08723	0.10741	-0.11837	-0.064641	0.15609
434	4.0801	-0.10441	0.064661	0.1028	-0.005424	0.27073	0.18475	-0.030011	0.2842	0.1688	-0.046816	-0.15316	-0.008669	-0.046816	0.031938	-0.008669	0	0	0	-0.14023	-0.019326	0.054131	-0.13919	0.087235	0.10759	-0.11845	-0.064788	0.15588
435	4.0895	-0.1043	0.064603	0.10296	-0.0043654	0.27003	0.18511	-0.028926	0.28362	0.16923	-0.046816	-0.15316	-0.008669	-0.046816	0.031938	-0.008669	0	0	0	-0.1404	-0.019181	0.054068	-0.13903	0.087234	0.10778	-0.11854	-0.064939	0.15567
436	4.0989	-0.10418	0.064541	0.10312	-0.0032939	0.26932	0.18549	-0.027827	0.28303	0.16967	-0.046816	-0.15316	-0.008669	-0.046816	0.031938	-0.008669	0	0	0	-0.14057	-0.019034	0.054	-0.13886	0.08723	0.10797	-0.11862	-0.065094	0.15545
437	4.1084	-0.10407	0.064473	0.10328	-0.00221	0.26858	0.18588	-0.026714	0.28242	0.17012	-0.046816	-0.15316	-0.008669	-0.046816	0.031938	-0.008669	0	0	0	-0.14074	-0.018885	0.053929	-0.13869	0.087222	0.10816	-0.11871	-0.065253	0.15522
438	4.1178	-0.10395	0.064401	0.10344	-0.0011139	0.26782	0.18627	-0.025588	0.28179	0.17059	-0.046816	-0.15316	-0.008669	-0.046816	0.031938	-0.008669	0	0	0	-0.14092	-0.018735	0.053855	-0.13851	0.08721	0.10836	-0.11879	-0.065417	0.15498
439	4.1272	-0.10383	0.064324	0.1036	-5.8553e-06	0.26704	0.18668	-0.024449	0.28114	0.17107	-0.046816	-0.15316	-0.008669	-0.046816	0.031938	-0.008669	0	0	0	-0.14109	-0.018583	0.053777	-0.13834	0.087194	0.10856	-0.11887	-0.065584	0.15473
440	4.1366	-0.10371	0.064243	0.10377	0.0011137	0.26624	0.1871	-0.023296	0.28047	0.17155	-0.046816	-0.15316	-0.008669	-0.046816	0.031938	-0.008669	0	0	0	-0.14127	-0.018429	0.053696	-0.13816	0.087175	0.10875	-0.11895	-0.065755	0.15448
441	4.1461	-0.10358	0.064158	0.10393	0.0022445	0.26542	0.18752	-0.022131	0.27979	0.17205	-0.046816	-0.15316	-0.008669	-0.046816	0.031938	-0.008669	0	0	0	-0.14145	-0.018274	0.053613	-0.13798	0.087152	0.10895	-0.11903	-0.06593	0.15422
442	4.1555	-0.10346	0.064069	0.1041	0.0033861	0.26459	0.18795	-0.020954	0.27908	0.17256	-0.046816	-0.15316	-0.008669	-0.046816	0.031938	-0.008669	0	0	0	-0.14164	-0.018117	0.053526	-0.1378	0.087125	0.10916	-0.11911	-0.066108	0.15395
